#!OML:ASF F:\VICON\USERDATA\INSTALL\Justin_Nancy\Justin_Nancy.ASF
:FULLY-SPECIFIED
:DEGREES
205
root -4.41196 17.6566 -0.845538 2.3571 28.361 2.09965
lowerback 5.73227 0.90259 -2.08718
upperback 0.411555 1.10033 0.992138
thorax -2.84887 0.580868 2.10513
lowerneck -14.0347 -2.97391 -8.18618
upperneck 23.4062 -2.8952 3.39572
head 9.93401 -1.63985 2.20752
rclavicle -3.16565e-014 1.55052e-014
rhumerus -34.3245 -16.0783 -74.7649
rradius 35.94
rwrist 4.74561
rhand -14.4115 13.2555
rfingers 7.12502
rthumb 11.7323 -16.3959
lclavicle -3.16565e-014 1.55052e-014
lhumerus -35.5868 14.4606 81.5723
lradius 21.6739
lwrist -15.1588
lhand -12.5591 24.1224
lfingers 7.12502
lthumb 13.5182 53.6636
rfemur -13.0113 -5.35312 17.3449
rtibia 65.8714
rfoot 10.2338 -9.95527
rtoes 13.8924
lfemur -16.6095 1.46752 -29.7296
ltibia 21.7426
lfoot -4.93518 -0.709561
ltoes 12.7011
206
root -4.33758 17.6513 -0.717146 2.40412 28.7827 2.30244
lowerback 5.82028 0.742671 -2.23077
upperback 0.371711 0.87695 1.01998
thorax -2.93018 0.473027 2.23212
lowerneck -14.1722 -2.94523 -8.6749
upperneck 23.6095 -2.77182 3.59942
head 10.0376 -1.60444 2.37899
rclavicle 4.76089e-014 -1.59028e-015
rhumerus -34.4347 -16.1854 -74.7289
rradius 35.4935
rwrist 5.45446
rhand -14.6175 13.6392
rfingers 7.12502
rthumb 11.5336 -16.0234
lclavicle 4.76089e-014 -1.59028e-015
lhumerus -35.3109 14.2295 81.8209
lradius 21.9201
lwrist -15.0199
lhand -13.0949 24.5505
lfingers 7.12502
lthumb 13.0018 54.1253
rfemur -14.2287 -5.47045 17.1445
rtibia 66.8032
rfoot 9.23085 -9.57675
rtoes 13.216
lfemur -16.1156 1.47807 -29.9494
ltibia 21.9903
lfoot -5.41233 -0.888416
ltoes 12.5714
207
root -4.25939 17.6429 -0.594394 2.39204 29.1774 2.35552
lowerback 5.84515 0.604264 -2.19681
upperback 0.375543 0.695615 1.05809
thorax -2.93008 0.382551 2.26746
lowerneck -14.3708 -2.95735 -8.84831
upperneck 23.8555 -2.73836 3.6449
head 10.1663 -1.60098 2.43038
rclavicle -1.67476e-014 -7.95139e-015
rhumerus -34.5532 -16.493 -74.6788
rradius 35.1798
rwrist 5.71092
rhand -14.5163 13.415
rfingers 7.12502
rthumb 11.6312 -16.2422
lclavicle -1.67476e-014 -7.95139e-015
lhumerus -34.8506 14.4046 81.8867
lradius 21.8721
lwrist -15.4598
lhand -13.5476 24.3534
lfingers 7.12502
lthumb 12.5653 53.9555
rfemur -15.3613 -5.57196 17.1106
rtibia 67.5732
rfoot 8.17674 -8.97931
rtoes 10.6417
lfemur -15.6829 1.45234 -30.0478
ltibia 22.3154
lfoot -5.97874 -1.06161
ltoes 12.5178
208
root -4.18568 17.6266 -0.47497 2.44131 29.4387 2.58416
lowerback 5.84875 0.508431 -2.44902
upperback 0.445031 0.554389 1.1412
thorax -2.85575 0.314302 2.50747
lowerneck -14.4148 -2.90374 -8.96346
upperneck 23.8843 -2.60679 3.56118
head 10.1778 -1.56028 2.43731
rclavicle -1.97294e-014 7.95139e-016
rhumerus -34.5955 -16.6248 -74.6092
rradius 34.9733
rwrist 5.79975
rhand -14.1379 12.6666
rfingers 7.12502
rthumb 11.9962 -16.9696
lclavicle -1.97294e-014 7.95139e-016
lhumerus -34.3618 14.6783 82.0081
lradius 21.8335
lwrist -15.6442
lhand -14.2704 25.1772
lfingers 7.12502
lthumb 11.8683 54.8208
rfemur -16.5451 -5.52414 16.9037
rtibia 68.2369
rfoot 6.99814 -8.57796
rtoes 9.53575
lfemur -15.2628 1.70617 -30.3193
ltibia 22.6771
lfoot -6.60566 -1.37532
ltoes 12.2359
209
root -4.11251 17.6109 -0.352835 2.3975 29.7538 2.765
lowerback 5.99978 0.425369 -2.63203
upperback 0.438245 0.429861 1.19419
thorax -2.94151 0.256336 2.67546
lowerneck -14.222 -2.7846 -8.91055
upperneck 23.8503 -2.43103 3.41359
head 10.1139 -1.49159 2.39979
rclavicle 2.6339e-015 1.59028e-015
rhumerus -34.8521 -16.9052 -74.4594
rradius 34.6515
rwrist 6.28688
rhand -14.2249 12.491
rfingers 7.12502
rthumb 11.9122 -17.1501
lclavicle 2.6339e-015 1.59028e-015
lhumerus -34.1382 13.8533 82.5134
lradius 22.3392
lwrist -14.6138
lhand -15.0111 24.6193
lfingers 7.12502
lthumb 11.1541 54.3028
rfemur -17.6417 -5.40667 16.7526
rtibia 68.723
rfoot 5.61574 -8.24253
rtoes 9.57642
lfemur -14.7781 1.76781 -30.5091
ltibia 23.0952
lfoot -7.20679 -1.47126
ltoes 12.1624
210
root -4.03683 17.5985 -0.229208 2.38644 30.1347 2.98666
lowerback 6.18224 0.333145 -2.68798
upperback 0.402151 0.296466 1.12932
thorax -3.07217 0.192723 2.65109
lowerneck -14.1553 -2.78864 -8.84502
upperneck 23.8748 -2.42493 3.28269
head 10.1076 -1.49833 2.34366
rclavicle 5.41191e-014 -1.74931e-014
rhumerus -35.2422 -17.4015 -74.3571
rradius 34.405
rwrist 6.66584
rhand -14.5755 13.0635
rfingers 7.12502
rthumb 11.5742 -16.5969
lclavicle 5.41191e-014 -1.74931e-014
lhumerus -33.8667 13.0202 82.8433
lradius 22.7581
lwrist -13.9688
lhand -15.323 22.3912
lfingers 7.12502
lthumb 10.8532 52.0907
rfemur -18.6809 -5.36782 16.555
rtibia 69.0573
rfoot 4.26028 -7.72677
rtoes 9.25115
lfemur -14.2739 1.69715 -30.7095
ltibia 23.4965
lfoot -7.8294 -1.64263
ltoes 12.0438
